<svg xmlns="http://www.w3.org/2000/svg" width="192.49" height="42.081" viewBox="0 0 192.49 42.081">
  <g id="Logo" transform="translate(0 8.597)">
    <path id="BOOKLY" d="M35.2,36.457a16.234,16.234,0,0,1-4.874-11.942A16.238,16.238,0,0,1,35.2,12.573,16.187,16.187,0,0,1,47.092,7.7,16.682,16.682,0,0,1,63.908,24.515,16.643,16.643,0,0,1,47.092,41.331,16.178,16.178,0,0,1,35.2,36.457Zm139.877,4.227V28.072L164.032,8.346h7.207l7.022,13.49,7.022-13.49h7.207L181.4,28.072V40.684Zm-30.135,0V8.346h6.375v26.24h12.335v6.1Zm-14.337,0L119.051,25.531V40.684h-6.375V8.346h6.375V22.621L130.139,8.346h7.345L125.519,24.053l12.427,16.631ZM0,40.684V8.346H12.751a10.064,10.064,0,0,1,7,2.564,8.417,8.417,0,0,1,2.841,6.537,7.884,7.884,0,0,1-3.049,6.468,7.993,7.993,0,0,1,4.25,7.392,8.686,8.686,0,0,1-2.91,6.745,10.281,10.281,0,0,1-7.161,2.633ZM75.633,28.758a16.247,16.247,0,0,1-4.874-11.942A16.247,16.247,0,0,1,75.633,4.874a16.983,16.983,0,0,1,23.815,0,16.2,16.2,0,0,1,4.9,11.942,16.27,16.27,0,0,1-4.9,11.965,17.011,17.011,0,0,1-23.815-.023Z" transform="translate(0 -8.597)" fill="#fff"/>
    <path id="Path_72" data-name="Path 72" d="M0,.5H23.1" transform="translate(76.56 32.234)" fill="none" stroke="#fff" stroke-linecap="round" stroke-miterlimit="10" stroke-width="1.5"/>
  </g>
</svg>
